<svg
                version="1.1"
                id="Layer_1"
                xmlns="http://www.w3.org/2000/svg"
                x="0"
                y="0"
                viewBox="0 0 371.3 150.2"
                xmlSpace="preserve"
                css={props.css}
            >
                <path d="M130.5 134.8c-.3 0-.5.2-.5.5v7.7c0 .3.2.5.5.5s.5-.2.5-.5v-7.7c0-.3-.2-.5-.5-.5zM130.5 132.5c-.3 0-.6.3-.6.6s.3.6.6.6.6-.3.6-.6-.2-.6-.6-.6zM138.3 134.7h-1.5c-2 0-3.6 1.6-3.6 3.6v4.7c0 .3.2.5.5.5s.5-.2.5-.5v-4.7c0-1.4 1.2-2.6 2.6-2.6h1.5c1.4 0 2.6 1.2 2.6 2.6v4.6c0 .3.2.5.5.5s.5-.2.5-.5v-4.7c0-1.9-1.7-3.5-3.6-3.5zM147.7 138.6c-1.9-.3-3-.5-3-1.6 0-.7.6-1.2 1.2-1.2h3.2c.3 0 .6.1.9.4l.1.1c.2.2.3.5.3.6v.2c0 .3.2.5.5.5s.5-.2.5-.5v-.2c0-.4-.2-1-.6-1.4l-.1-.1c-.4-.4-1-.7-1.6-.7h-3.2c-1.2 0-2.3 1-2.3 2.3 0 2.2 2.4 2.5 4.2 2.7.4 0 .7.1 1 .1 1.1.2 1.6.7 1.6 1.4s-.6 1.2-1.2 1.2h-3.5c-.5 0-1.2-.5-1.2-1v-.2c0-.3-.2-.5-.5-.5-.2 0-.5.1-.5.8 0 1.1 1.1 2 2.2 2h3.5c1.2 0 2.3-1 2.3-2.3 0-2.1-2-2.4-3.8-2.6zM158.1 134.7h-1.5c-1.9 0-3.6 1.6-3.6 3.6v8.7c0 .3.2.5.5.5s.5-.2.5-.5v-4.6c.7.7 1.6 1 2.5 1h1.5c1.9 0 3.6-1.6 3.6-3.6v-1.6c.1-1.9-1.6-3.5-3.5-3.5zm0 7.7h-1.5c-1.4 0-2.6-1.2-2.6-2.5v-1.7c0-1.4 1.2-2.6 2.6-2.6h1.5c1.4 0 2.6 1.2 2.6 2.6v1.6c0 1.5-1.2 2.6-2.6 2.6zM164 134.8c-.3 0-.5.2-.5.5v7.7c0 .3.2.5.5.5s.5-.2.5-.5v-7.7c-.1-.3-.3-.5-.5-.5zM164 132.5c-.3 0-.6.3-.6.6s.3.6.6.6.6-.3.6-.6c-.1-.4-.3-.6-.6-.6zM171.2 134.7h-1.1c-2 0-3.6 1.6-3.6 3.6v4.6c0 .3.2.5.5.5s.5-.2.5-.5v-4.7c0-1.4 1.2-2.6 2.6-2.6h1.1c.7 0 1.3.3 1.9.8.1.1.2.1.4.1.3 0 .5-.2.5-.5 0-.2-.1-.3-.1-.3-.8-.6-1.7-1-2.7-1zM180 134.7h-1.5c-2 0-3.6 1.7-3.6 3.6v1.4c0 2.1 1.6 3.8 3.6 3.8h3.6c.3 0 .5-.2.5-.5s-.2-.5-.5-.5h-3.6c-1 0-2-.6-2.4-1.6l-.2-.5h7c.4 0 .7-.3.7-.7v-1.4c0-1.9-1.7-3.6-3.6-3.6zm-1.5 1h1.5c1.4 0 2.6 1.2 2.6 2.6v1.1h-6.8v-1.1c0-1.4 1.2-2.6 2.7-2.6zM193.3 131.9c-.3 0-.5.2-.5.5v3.4c-.6-.7-1.6-1-2.5-1h-1.5c-2 0-3.6 1.6-3.6 3.6v1.6c0 2 1.6 3.6 3.6 3.6h1.5c2 0 3.6-1.6 3.6-3.6v-7.5c-.1-.4-.3-.6-.6-.6zm-3.1 10.5h-1.5c-1.4 0-2.6-1.2-2.6-2.6v-1.6c0-1.4 1.2-2.6 2.6-2.6h1.5c1.4 0 2.6 1.2 2.6 2.5v1.7c0 1.5-1.2 2.6-2.6 2.6zM204.7 134.7h-1.1c-2 0-3.6 1.6-3.6 3.6v4.6c0 .3.2.5.5.5s.5-.2.5-.5v-4.7c0-1.4 1.2-2.6 2.6-2.6h1.1c.7 0 1.3.3 1.9.8.1.1.2.1.4.1.3 0 .5-.2.5-.5 0-.2-.1-.3-.1-.3-.8-.6-1.7-1-2.7-1zM213.5 134.7H212c-2 0-3.6 1.7-3.6 3.6v1.4c0 2.1 1.6 3.8 3.6 3.8h3.6c.3 0 .5-.2.5-.5s-.2-.5-.5-.5H212c-1 0-2-.6-2.4-1.6l-.2-.5h7c.4 0 .7-.3.7-.7v-1.4c0-1.9-1.7-3.6-3.6-3.6zm-1.5 1h1.5c1.4 0 2.6 1.2 2.6 2.6v1.1h-6.8v-1.1c0-1.4 1.2-2.6 2.7-2.6zM233.1 134.7c-.3 0-.5.2-.5.5v4.6c0 1.4-1.2 2.6-2.6 2.6h-.7c-1.4 0-2.6-1.2-2.6-2.6v-4.7c0-.3-.2-.5-.5-.5s-.5.2-.5.5v4.6c0 1.4-1.2 2.6-2.6 2.6h-.7c-1.4 0-2.6-1.2-2.6-2.6V135c0-.3-.2-.5-.5-.5s-.5.2-.5.5v4.7c0 2 1.7 3.6 3.6 3.6h.7c1.3 0 2.5-.7 3.1-1.8.7 1.1 1.9 1.8 3.1 1.8h.7c2 0 3.6-1.6 3.6-3.6V135c0-.1-.2-.3-.5-.3zM239.7 134.7h-3.5c-.3 0-.5.2-.5.5s.2.5.5.5h3.5c1.2 0 2.3.8 2.5 2h-4.7c-1.6 0-2.9 1.3-2.9 2.9 0 1.6 1.3 2.9 2.9 2.9h2.2c2 0 3.7-1.7 3.7-3.6v-1.5c-.1-2-1.8-3.7-3.7-3.7zm0 7.7h-2.2c-1 0-1.9-.8-1.9-1.9 0-1 .8-1.8 1.9-1.8h4.8v1.1c0 1.4-1.2 2.6-2.6 2.6zM249.2 134.7h-1.1c-2 0-3.6 1.6-3.6 3.6v4.6c0 .3.2.5.5.5s.5-.2.5-.5v-4.7c0-1.4 1.2-2.6 2.6-2.6h1.1c.7 0 1.3.3 1.9.8.1.1.2.1.4.1.3 0 .5-.2.5-.5 0-.2-.1-.3-.1-.3-.8-.6-1.8-1-2.7-1zM260.9 131.9c-.3 0-.5.2-.5.5v3.4c-.6-.7-1.6-1-2.5-1h-1.5c-2 0-3.6 1.6-3.6 3.6v1.6c0 2 1.6 3.6 3.6 3.6h1.5c2 0 3.6-1.6 3.6-3.6v-7.5c-.1-.4-.3-.6-.6-.6zm-3.1 10.5h-1.5c-1.4 0-2.6-1.2-2.6-2.6v-1.6c0-1.4 1.2-2.6 2.6-2.6h1.5c1.4 0 2.6 1.2 2.6 2.5v1.7c0 1.5-1.2 2.6-2.6 2.6zM272.7 134.7h-1.5c-1.9 0-3.6 1.6-3.6 3.6v8.7c0 .3.2.5.5.5s.5-.2.5-.5v-4.6c.7.7 1.6 1 2.5 1h1.5c1.9 0 3.6-1.6 3.6-3.6v-1.6c0-1.9-1.6-3.5-3.5-3.5zm0 7.7h-1.5c-1.4 0-2.6-1.2-2.6-2.5v-1.7c0-1.4 1.2-2.6 2.6-2.6h1.5c1.4 0 2.6 1.2 2.6 2.6v1.6c-.1 1.5-1.2 2.6-2.6 2.6zM283.1 134.7h-1.5c-2 0-3.6 1.7-3.6 3.6v1.5c0 2 1.7 3.6 3.6 3.6h1.5c2 0 3.6-1.7 3.6-3.6v-1.5c0-1.9-1.6-3.6-3.6-3.6zm0 7.7h-1.5c-1.4 0-2.6-1.2-2.6-2.6v-1.5c0-1.4 1.2-2.6 2.6-2.6h1.5c1.4 0 2.6 1.2 2.6 2.6v1.5c0 1.4-1.2 2.6-2.6 2.6zM292.4 138.6c-1.9-.3-3-.5-3-1.6 0-.7.6-1.2 1.2-1.2h3.2c.3 0 .6.1.9.4l.1.1c.2.2.3.5.3.6v.2c0 .3.2.5.5.5s.5-.2.5-.5v-.2c0-.4-.2-1-.6-1.4l-.1-.1c-.4-.4-1-.7-1.6-.7h-3.2c-1.2 0-2.3 1-2.3 2.3 0 2.2 2.4 2.5 4.2 2.7.4 0 .7.1 1 .1 1.1.2 1.6.7 1.6 1.4s-.6 1.2-1.2 1.2h-3.5c-.5 0-1.2-.5-1.2-1v-.2c0-.3-.2-.5-.5-.5-.2 0-.5.1-.5.8 0 1.1 1.1 2 2.2 2h3.5c1.2 0 2.3-1 2.3-2.3.1-2.1-2-2.4-3.8-2.6zM301.9 138.6c-1.9-.3-3-.5-3-1.6 0-.7.6-1.2 1.2-1.2h3.2c.3 0 .6.1.9.4l.1.1c.2.2.3.5.3.6v.2c0 .3.2.5.5.5s.5-.2.5-.5v-.2c0-.4-.2-1-.6-1.4l-.1-.1c-.4-.4-1-.7-1.6-.7h-3.2c-1.2 0-2.3 1-2.3 2.3 0 2.2 2.4 2.5 4.2 2.7.4 0 .7.1 1 .1 1.1.2 1.6.7 1.6 1.4s-.6 1.2-1.2 1.2H300c-.5 0-1.2-.5-1.2-1v-.2c0-.3-.2-.5-.5-.5-.2 0-.5.1-.5.8 0 1.1 1.1 2 2.2 2h3.5c1.2 0 2.3-1 2.3-2.3 0-2.1-2.1-2.4-3.9-2.6zM307.9 132.5c-.3 0-.6.3-.6.6s.3.6.6.6.6-.3.6-.6-.3-.6-.6-.6zM307.9 134.8c-.3 0-.5.2-.5.5v7.7c0 .3.2.5.5.5s.5-.2.5-.5v-7.7c0-.3-.2-.5-.5-.5zM315.5 134.6H314c-1 0-1.9.4-2.5 1.1v-3.4c0-.3-.2-.5-.5-.5s-.5.2-.5.5v7.5c0 2 1.6 3.6 3.6 3.6h1.5c2 0 3.6-1.6 3.6-3.6v-1.6c-.1-1.9-1.7-3.6-3.7-3.6zm0 7.8H314c-1.4 0-2.6-1.2-2.6-2.6v-1.7c0-1.4 1.2-2.5 2.6-2.5h1.5c1.4 0 2.6 1.2 2.6 2.6v1.6c0 1.5-1.1 2.6-2.6 2.6zM321.1 134.8c-.3 0-.5.2-.5.5v7.7c0 .3.2.5.5.5s.5-.2.5-.5v-7.7c0-.3-.2-.5-.5-.5zM321.1 132.5c-.3 0-.6.3-.6.6s.3.6.6.6.6-.3.6-.6-.3-.6-.6-.6zM324.2 132c-.3 0-.5.2-.5.5V143c0 .3.2.5.5.5s.5-.2.5-.5v-10.4c0-.3-.3-.6-.5-.6zM327.4 134.8c-.3 0-.5.2-.5.5v7.7c0 .3.2.5.5.5s.5-.2.5-.5v-7.7c0-.3-.2-.5-.5-.5zM327.4 132.5c-.3 0-.6.3-.6.6s.3.6.6.6.6-.3.6-.6-.3-.6-.6-.6zM334.3 142.4h-.7c-1.4 0-2.6-1.2-2.6-2.6v-4.2h3.1c.3 0 .5-.2.5-.5s-.2-.5-.5-.5H331v-2.2c0-.3-.2-.5-.5-.5s-.5.2-.5.5v7.3c0 2 1.6 3.6 3.6 3.6h.7c.3 0 .5-.2.5-.5s-.2-.4-.5-.4zM337.1 134.8c-.3 0-.5.2-.5.5v7.7c0 .3.2.5.5.5s.5-.2.5-.5v-7.7c0-.3-.2-.5-.5-.5zM337.1 132.5c-.3 0-.6.3-.6.6s.3.6.6.6.6-.3.6-.6c0-.4-.3-.6-.6-.6zM344.8 134.7h-1.5c-2 0-3.6 1.7-3.6 3.6v1.4c0 2.1 1.6 3.8 3.6 3.8h3.6c.3 0 .5-.2.5-.5s-.2-.5-.5-.5h-3.6c-1 0-2-.6-2.4-1.6l-.2-.5h7c.4 0 .7-.3.7-.7v-1.4c.1-1.9-1.6-3.6-3.6-3.6zm-1.5 1h1.5c1.4 0 2.6 1.2 2.6 2.6v1.1h-6.8v-1.1c.1-1.4 1.3-2.6 2.7-2.6zM354.1 138.6c-1.9-.3-3-.5-3-1.6 0-.7.6-1.2 1.2-1.2h3.2c.3 0 .6.1.9.4l.1.1c.2.2.3.5.3.6v.2c0 .3.2.5.5.5s.5-.2.5-.5v-.2c0-.4-.2-1-.6-1.4l-.1-.1c-.4-.4-1-.7-1.6-.7h-3.2c-1.2 0-2.3 1-2.3 2.3 0 2.2 2.4 2.5 4.2 2.7.4 0 .7.1 1 .1 1.1.2 1.6.7 1.6 1.4s-.6 1.2-1.2 1.2h-3.5c-.5 0-1.2-.5-1.2-1v-.2c0-.3-.2-.5-.5-.5-.2 0-.5.1-.5.8 0 1.1 1.1 2 2.2 2h3.5c1.2 0 2.3-1 2.3-2.3.1-2.1-2-2.4-3.8-2.6zM26.1 79.5H9.6c-1.7 0-3 1.4-3 3.1 0 1.6 1.4 3 3 3H26c5 0 9.6 3.4 11.2 8.1H15.8c-7.9 0-14.3 6.4-14.3 14.2 0 7.9 6.4 14.3 14.3 14.3h10.3c9.7 0 18-8.2 18-17.8v-7.1c-.1-9.6-8.3-17.8-18-17.8zm11.7 25c0 6.3-5.4 11.7-11.7 11.7H15.8c-4.6 0-8.2-3.6-8.2-8.2 0-4.5 3.7-8.1 8.2-8.1h22v4.6zM97.9 69.1c-1.9 0-3.5 1.6-3.5 3.5S96 76 97.9 76s3.5-1.6 3.5-3.5-1.5-3.4-3.5-3.4zM97.9 80c-1.8 0-3.1 1.4-3.1 3.1v36.2c0 1.7 1.4 3 3.1 3 1.7 0 3-1.4 3-3V83.1c.1-1.7-1.3-3.1-3-3.1zM153.5 104.5v-7.1c0-9.7-8.2-17.8-17.9-17.8h-7.1c-9.7 0-17.9 8.2-17.9 17.8v7.1c0 9.7 8.2 17.8 17.9 17.8h7.1c9.7 0 17.9-8.1 17.9-17.8zm-25.1-18.8h7.1c6.4 0 11.7 5.4 11.7 11.7v7.1c0 6.3-5.4 11.7-11.7 11.7h-7.1c-6.2 0-11.7-5.5-11.7-11.7v-7.1c0-6.4 5.4-11.7 11.7-11.7zM211.3 85.7h3.3c6.3 0 11.6 5.4 11.6 11.7v21.8c0 1.7 1.4 3.1 3.1 3.1 1.8 0 3.1-1.4 3.1-3.1V97.1c-.2-9.7-8.2-17.6-17.9-17.6h-3.3c-5.8 0-11.2 2.8-14.8 7.8-3.2-4.9-8.8-7.8-14.8-7.8h-3.3c-9.6 0-17.7 7.9-17.9 17.6v22c0 1.8 1.4 3.1 3.1 3.1 1.7 0 3-1.4 3-3.1v-22c.2-6.2 5.5-11.5 11.7-11.5h3.3c6.4 0 11.7 5.4 11.7 11.7v21.8c0 1.7 1.4 3.1 3 3.1 1.8 0 3.1-1.4 3.1-3.1v-22c.4-6.2 5.8-11.4 12-11.4zM250.6 122.3h10.3c9.7 0 18-8.2 18-17.8v-7.1c0-9.7-8.2-17.8-18-17.8h-16.4c-1.7 0-3 1.4-3 3.1 0 1.6 1.4 3 3 3h16.4c5 0 9.6 3.4 11.2 8.1h-21.5c-7.9 0-14.3 6.4-14.3 14.2-.1 7.9 6.4 14.3 14.3 14.3zm0-22.4h22v4.6c0 6.3-5.4 11.7-11.7 11.7h-10.3c-4.6 0-8.2-3.6-8.2-8.2 0-4.4 3.7-8.1 8.2-8.1zM307.1 116.2h-3.5c-6.4 0-11.5-5.2-11.5-11.5V85.6h14.1c1.8 0 3.1-1.4 3.1-3.1 0-1.7-1.4-3-3.1-3H292V70c0-1.7-1.4-3-3.1-3-1.6 0-3 1.4-3 3v34.7c0 9.7 7.9 17.6 17.7 17.6h3.5c1.6 0 3-1.4 3-3 0-1.7-1.4-3.1-3-3.1zM321.3 69.1c-1.9 0-3.5 1.6-3.5 3.5s1.6 3.5 3.5 3.5 3.5-1.6 3.5-3.5c0-2-1.5-3.5-3.5-3.5zM324.4 83.1c0-1.7-1.4-3.1-3-3.1-1.8 0-3.1 1.4-3.1 3.1v36.2c0 1.7 1.4 3 3.1 3 1.7 0 3-1.4 3-3V83.1zM366.9 116.2h-15c-6.4 0-11.7-5.4-11.7-11.7v-7.1c0-6.3 5.4-11.7 11.7-11.7h15c1.6 0 3-1.4 3-3 0-1.7-1.4-3.1-3-3.1h-15c-9.7 0-17.9 8.2-17.9 17.8v7.1c0 9.7 8.2 17.8 17.9 17.8h15c1.7 0 3-1.4 3-3.1 0-1.6-1.4-3-3-3z" />
                <path d="M70.5 98.2 127.9 0H121L67 92.6l-6.7-10.5c-1.1-1.7-3.2-2.2-4.8-1.2-1.6 1-2 3.2-.9 4.8l8.6 13.4-9.2 15.7c-1.4 2.4-1.4 5 0 5.8 1.4.8 3.7-.5 5.1-2.8l7.6-13 9.2 14.3c1.1 1.7 3.2 2.2 4.8 1.2s2-3.2.9-4.8L70.5 98.2z" />
            </svg>